<?xml version="1.0" encoding="UTF-8"?>
<svg width="121px" height="182px" viewBox="0 0 121 182" version="1.1" xmlns="http://www.w3.org/2000/svg" xmlns:xlink="http://www.w3.org/1999/xlink">
    <!-- Generator: Sketch 55.2 (78181) - https://sketchapp.com -->
    <title>father ted new</title>
    <desc>Created with Sketch.</desc>
    <defs>
        <path d="M2.80403417,8.72463526 C1.59775752,11.839107 1.53611411,12.1615857 2.23992484,13.0726911 C2.42477189,13.3119815 2.67751352,13.556371 3.00721883,13.8082643 C6.13793585,16.2001174 11.786299,16.009159 14.3564817,13.3747226 C16.8018272,10.8682442 16.527597,5.34742597 14.0566606,2.52358077 C13.2019991,1.54685318 10.9644538,1.59608086 8.20243699,2.57531492 C7.02586485,2.99245195 5.8610489,3.5461871 4.96876323,4.09891965 C4.55813095,4.35328866 4.22641317,4.59505598 4.00427486,4.79877334 C3.91120729,4.88412323 3.84358324,4.95726842 3.80426051,5.01124445 C3.6525576,6.25351661 3.33811253,7.34570452 2.80403417,8.72463526 Z" id="path-1"></path>
    </defs>
    <g id="Symbols" stroke="none" stroke-width="1" fill="none" fill-rule="evenodd">
        <g id="father-ted-new">
            <g>
                <g id="Suit" transform="translate(2.000000, 126.495677)">
                    <path d="M51.5170292,0 C74.7716975,8.13927903e-16 89.280901,7.62195248 98.0263659,22.4021868 C106.771831,37.1824211 107.78281,38.6509431 86.2200499,48.2750466 C64.6572897,57.8991502 35.5329122,56.6298522 16.8140085,48.2750466 C-1.90489533,39.9202411 -3.65616482,37.0445002 5.00769237,22.4021868 C13.6715496,7.75987332 28.2623608,-1.79562877e-15 51.5170292,0 Z" id="Polygon-Copy-15" fill="#1F1F1F"></path>
                    <path d="M52.8947196,10.2918757 C58.7603457,10.2918757 63.5153752,8.10923056 63.5153752,5.40861999 C63.5153752,2.70800942 58.7603457,0.518731988 52.8947196,0.518731988 C47.0290934,0.518731988 42.64,1.9566985 42.64,4.65730907 C42.64,7.35791964 47.0290934,10.2918757 52.8947196,10.2918757 Z" id="Oval-3-Copy-14" fill="#FFFFFF"></path>
                    <path d="M49.0334554,7.55043041 C49.0334554,7.55043041 48.3583029,11.7937493 47.7636545,11.7937493 C47.1690061,11.7937493 55.7850608,13.7878786 56.7524436,12.9687481 C57.7198264,12.1496176 57.5276351,8.25152911 57.5276351,8.25152911 L49.0334554,7.55043041 Z" id="Path-25-Copy" fill="#FFFFFF" transform="translate(52.638721, 10.358323) scale(-1, 1) rotate(-10.000000) translate(-52.638721, -10.358323) "></path>
                </g>
                <g id="neck" transform="translate(46.720000, 116.639769)">
                    <path d="M2.26391239,4.75416477 C2.39317028,3.64041026 4.87337471,2.10403042 7.68002161,1.1089734 C10.9984932,-0.0675438285 13.8060263,-0.129311674 15.2319073,1.50021919 C18.2062046,4.89931729 18.5257532,11.332486 15.4744299,14.4600914 C12.3340335,17.6789967 5.79724965,17.8999906 2.05869275,15.0437507 C1.62638256,14.7134678 1.27689682,14.3755311 1.00424734,14.0225777 C0.316992853,13.1329048 0.130941038,12.1782036 0.343053792,11.0685664 C0.424720956,10.6413364 0.560694643,10.1978009 0.769523057,9.63925136 C0.879363484,9.34546316 1.29714787,8.29732177 1.34887168,8.16377666 C1.85066788,6.86819483 2.13372338,5.87594234 2.26391239,4.75416477 Z" id="Path-22-Copy-17" fill="#4A4A4A" fill-rule="nonzero"></path>
                    <mask id="mask-2" fill="white">
                        <use xlink:href="#path-1"></use>
                    </mask>
                    <use id="Mask" fill="#E8D7C9" xlink:href="#path-1"></use>
                    <path d="M5.40403417,8.72463526 C4.19775752,11.839107 4.13611411,12.1615857 4.83992484,13.0726911 C5.02477189,13.3119815 5.27751352,13.556371 5.60721883,13.8082643 C8.73793585,16.2001174 14.386299,16.009159 16.9564817,13.3747226 C19.4018272,10.8682442 19.127597,5.34742597 16.6566606,2.52358077 C15.8019991,1.54685318 13.5644538,1.59608086 10.802437,2.57531492 C9.62586485,2.99245195 8.4610489,3.5461871 7.56876323,4.09891965 C7.15813095,4.35328866 6.82641317,4.59505598 6.60427486,4.79877334 C6.51120729,4.88412323 6.44358324,4.95726842 6.40426051,5.01124445 C6.2525576,6.25351661 5.93811253,7.34570452 5.40403417,8.72463526 Z" id="Path-Copy" fill="#F5E8DE" mask="url(#mask-2)"></path>
                </g>
                <g id="face-bg" transform="translate(4.080000, 6.668588)">
                    <path d="M3.78432681,63.9177539 C3.31192164,62.7881651 2.84019954,61.4967762 2.40025018,60.0637305 C-0.561445692,50.4166072 -0.61664701,40.1335734 4.17598533,30.4789758 C5.08439199,28.649021 6.16076402,26.8698057 7.41189113,25.1462517 C21.2217474,6.12178009 39.1398423,-1.33972447 66.4762338,0.720771905 C78.0297689,1.59162632 85.9326911,4.83585097 91.3504901,10.377585 C95.5179919,14.6404205 97.7263315,19.1920683 100.740498,28.1132883 C100.810468,28.320385 100.883341,28.5366053 100.969902,28.7938581 C101.024026,28.9547088 101.084253,29.133834 101.198421,29.4734059 C101.650319,30.8172504 101.901798,31.5573509 102.185649,32.3711342 C106.997602,46.1666648 93.454093,102.494816 83.4329827,111.655884 C73.0360868,121.160486 39.6060608,119.212217 22.8232037,107.208451 C16.9545923,103.010988 12.5593876,96.6900214 9.43104492,88.8219704 C7.36362914,83.6222418 5.96982357,78.058441 5.1217694,72.4957835 C4.82502875,70.5493671 4.61758967,68.7414634 4.48378281,67.1178537 C4.43686177,66.5485147 4.40249237,66.0425007 4.37872328,65.6055409 C4.37038683,65.4522874 4.3639607,65.3183636 4.35920295,65.2044811 C4.10479073,64.663444 3.95030999,64.3146435 3.78432681,63.9177539 Z" id="Path" fill="#584D4D"></path>
                    <path d="M99.9659185,30.923308 C99.8517178,30.5836374 99.7915469,30.4046811 99.737478,30.243993 C99.651074,29.987208 99.5783645,29.771471 99.5085864,29.5649442 C96.5532935,20.8179749 94.4115041,16.4034952 90.4198072,12.3204861 C85.2395963,7.02177514 77.6345373,3.89982618 66.3782853,3.05137964 C39.4745686,1.02349638 21.9978462,8.30120336 8.4648201,26.9443134 C7.25621777,28.6092852 6.2173097,30.3265735 5.34096937,32.0919318 C0.716820657,41.4071247 0.770267007,51.3632388 3.64326421,60.7214443 C4.07033363,62.1125362 4.52756021,63.3642421 4.98410374,64.4559034 C5.1432526,64.8364512 5.29068018,65.1693264 5.42252277,65.4519536 C5.50049698,65.6191047 5.55517289,65.7308996 5.58268343,65.7847671 C5.65581852,66.1465576 5.66303612,66.3194598 5.67681353,66.5727373 C5.69994005,66.9978842 5.73349543,67.4919138 5.7794117,68.0490608 C5.91085428,69.6439825 6.11491498,71.4224424 6.40699124,73.3382636 C7.24127111,78.810571 8.6118699,84.2817349 10.6394633,89.3813068 C13.6831115,97.0363439 17.9388176,103.15669 23.5807026,107.19199 C31.632629,112.951047 43.6892793,116.54658 56.0238187,117.265426 C67.8086162,117.952232 78.0375579,115.866706 82.5546735,111.737263 C92.1886342,102.930118 105.601149,47.146779 100.957853,33.834774 C100.671952,33.0151171 100.419284,32.2715167 99.9659185,30.923308 Z" id="Combined-Shape-Copy-45" fill="#584D4D" fill-rule="nonzero"></path>
                    <path d="M3.64326421,45.1594846 C4.07033363,46.5505766 4.52756021,47.8022824 4.98410374,48.8939437 C5.1432526,49.2744915 8.6118699,68.7197752 10.6394633,73.8193471 C13.6831115,81.4743843 16.1757713,92.1400031 21.8176563,96.1753031 C29.8695827,101.93436 44.0854605,109.405322 56.42,110.124167 C68.2047974,110.810974 78.4046031,108.922423 82.9217188,104.79298 C92.5556794,95.9858352 104.103452,37.5971725 99.4601563,24.2851675 C99.2751117,23.7546578 54.7229996,16.243984 26.3950781,22.3611987 C-1.93284332,28.4784133 2.62976822,41.8582271 3.64326421,45.1594846 Z" id="Combined-Shape-Copy-46" fill="#F5E8DE" fill-rule="nonzero"></path>
                    <path d="M82.9938281,110.098234 C73.3707813,118.895401 40.5263834,117.993001 23.2019531,105.601881 C5.87752288,93.2107609 7.01542969,63.0330286 7.01542969,63.0330286 C7.01542969,63.0330286 -1.04199122,52.1245334 1.79971058,38.2877523 C2.95062054,44.3803765 5.0035144,48.4000809 5.0035144,48.4000809 C5.0035144,48.4000809 11.7122885,84.8684969 29.0367188,97.2596168 C46.361149,109.650737 69.9369531,112.325134 79.56,103.527966 C86.982966,96.7420616 98.9207594,56.536135 101.778111,32.1613833 C104.290469,46.8201211 92.4711425,101.434291 82.9938281,110.098234 Z" id="Combined-Shape-Copy-44" fill="#EFDED1"></path>
                </g>
                <g id="eyebrows" transform="translate(38.920000, 60.097983)" fill="#826C6C">
                    <path d="M6.58365715,7.61459777 C14.3851806,8.41397187 17.7409156,7.10439741 22.6818212,5.44193914 C27.6227268,3.77948087 28.3530712,1.99571481 25.40979,1.99571481 C22.4665087,1.99571481 24.7812774,0.712660783 22.6818212,0.171541084 C20.582365,-0.369578615 22.1780728,0.404935023 15.2174853,1.99571481 C8.25689778,3.58649459 2.20428215,-0.723068966 0.426938398,2.65831387 C-1.35040535,6.0396967 2.94065156,3.32027735 3.8150634,4.32038384 C4.68947524,5.32049034 -1.21786629,6.81522367 6.58365715,7.61459777 Z" id="Path-23" transform="translate(13.572653, 3.927743) scale(1, -1) translate(-13.572653, -3.927743) "></path>
                    <path d="M39.9107086,10.2610956 C45.7724754,10.8235953 50.9963654,10.186511 55.9372711,8.52405269 C60.8781767,6.86159442 59.2722351,4.56679342 57.1727789,4.02567372 C55.0733227,3.48455402 57.6628029,-0.506032343 55.3725836,0.0536635085 C53.0823643,0.61335936 56.4912961,3.64322487 49.5307086,5.23400465 C42.5701211,6.82478444 38.0673492,1.28007966 36.2900054,4.6614625 C34.5126617,8.04284533 39.0362967,5.98602505 39.9107086,6.98613154 C40.7851204,7.98623803 34.0489417,9.69859603 39.9107086,10.2610956 Z" id="Path-23-Copy" transform="translate(47.538487, 5.230611) scale(1, -1) translate(-47.538487, -5.230611) "></path>
                </g>
                <g id="Eyes" transform="translate(45.680000, 72.547550)" fill="#8A6B6B">
                    <ellipse id="Oval-2-Copy-35" cx="40.04" cy="3.9614103" rx="2.6" ry="3.9614103"></ellipse>
                    <ellipse id="Oval-2-Copy-34" cx="2.6" cy="3.9614103" rx="2.6" ry="3.9614103"></ellipse>
                </g>
                <g id="mouth" transform="translate(52.960000, 99.521614)">
                    <path d="M3.97012286,0.540371327 C4.35879777,0.623287108 4.7812334,0.730046528 5.38691748,0.894489587 C5.28740517,0.867472023 6.60428638,1.22886886 6.99176404,1.33140729 C8.86554345,1.82726659 10.3350508,2.11119785 11.8711209,2.21535614 C12.6324569,2.26698103 13.4482919,2.28556907 14.3332092,2.27503526 C15.5475106,2.26058055 16.7041734,2.20095504 18.5207062,2.07589606 C23.2343562,1.75138537 24.0552502,1.74571328 24.8438905,2.3550001 C25.7875958,3.0840869 25.5901987,4.12606666 24.6372807,5.04192267 C23.9164246,5.73474239 22.7071502,6.45219155 21.2018387,7.10172879 C17.9981618,8.48410542 14.1040986,9.31396956 11.2157546,9.09246477 C8.30650293,8.86935658 5.02086943,7.47611317 2.7179806,5.64740375 C1.6129517,4.7699073 0.835068307,3.86265881 0.521708432,3.03034685 C0.116725187,1.95467499 0.500385301,1.00071577 1.60511763,0.536414786 C2.19311345,0.289289733 2.9189095,0.316116623 3.97012286,0.540371327 Z" id="Path-19-Copy-17" fill="#584D4D" fill-rule="nonzero"></path>
                    <path d="M1.78738603,2.55614885 C1.99896008,3.11810851 2.62892237,3.85283603 3.56000837,4.59220552 C5.66044059,6.26014545 8.6936877,7.54636667 11.3193861,7.74772938 C13.9648689,7.95060934 17.648155,7.16566392 20.6650901,5.86386581 C22.0347505,5.27286159 23.115565,4.63162632 23.6992279,4.07066386 C24.1371735,3.64975135 24.1594606,3.53210691 24.0160492,3.42131036 C23.6592322,3.14564105 22.5032669,3.15362837 18.6137906,3.42139892 C16.7734131,3.54809949 15.5957996,3.60880499 14.3493412,3.62364249 C13.430431,3.63458095 12.5792265,3.61518705 11.7794316,3.56095432 C10.1418842,3.44991503 8.59512329,3.15105721 6.64509933,2.63502127 C2.5324859,1.54669806 2.63266496,1.5680692 2.1300442,1.7793125 C1.70834678,1.95654505 1.63257353,2.14495295 1.78738603,2.55614885 Z" id="Path" fill="#FFFFFF"></path>
                </g>
                <path d="M71.6751712,78.8758911 C72.1167604,82.3788529 72.6014307,84.926948 73.3207476,88.0079429 C73.9566537,90.7316704 74.0315652,91.1374929 73.947976,91.6075539 C73.8858587,91.9568685 73.5997707,92.175379 72.4907242,92.5615081 C72.380908,92.599742 68.1790981,93.8914626 66.2024118,94.5893436 C65.76924,94.7422775 65.5423654,95.2165538 65.6956731,95.6486693 C65.8489808,96.0807848 66.3244164,96.3071062 66.7575882,96.1541723 C68.6922373,95.4711328 72.88941,94.1808377 73.0390472,94.1287396 C74.6619405,93.5637081 75.3888258,93.0085222 75.5863966,91.8974888 C75.7314313,91.0818906 75.6728121,90.7643295 74.9413747,87.6314197 C74.23412,84.6020903 73.7597218,82.1079993 73.3261677,78.6687775 C73.2688351,78.2139791 72.8527696,77.8916561 72.3968595,77.948849 C71.9409494,78.0060418 71.6178385,78.4210927 71.6751712,78.8758911 Z" id="nose" fill="#584D4D" fill-rule="nonzero"></path>
                <g id="Hair" transform="translate(0.960000, 0.443804)">
                    <path d="M78.6537099,47.7259779 C78.2281271,47.6797587 77.7231693,47.6253483 77.0457826,47.5526454 C76.7021758,47.5157665 75.4345754,47.3798955 75.1984371,47.3545636 C73.6084109,47.1839723 72.6054692,47.0754899 71.805046,46.9870088 C66.4009504,46.3896242 61.5269359,45.7951955 57.0594414,45.1835364 C55.6896258,44.9959905 54.3731055,44.8086916 53.1104536,44.6216169 C40.0258873,42.6830049 33.8901377,41.082314 32.5734108,38.9178108 C31.9012992,37.8129595 31.518013,37.4723504 31.1467197,37.5409129 C31.1310362,37.9881898 31.1141456,38.4750233 31.0921236,39.112919 C31.0503882,40.3218351 30.9904037,42.0680487 30.9136896,44.3068801 C30.7786253,48.2486094 30.5948667,53.6249187 30.3745641,60.0785249 C30.2005765,65.1754038 30.0166872,70.5664123 29.8328903,75.9574211 C29.7685614,77.8442745 29.708839,79.5963525 29.6552509,81.16873 C29.600135,82.786032 29.600135,82.786032 29.5878896,83.1454304 L29.572276,83.6036875 L28.4324655,83.9626686 C28.0991715,84.067639 27.6294644,84.1889708 27.1117184,84.2985729 C26.150143,84.5021297 25.2361989,84.6157444 24.3863831,84.6285219 C22.9262604,84.6504756 21.7400682,84.375975 20.8165264,83.7481843 C19.4510488,82.8199815 19.0988165,81.7905831 19.2098372,79.6200178 C19.2586742,78.6414756 19.2204475,78.4857008 19.0292114,78.3482685 C17.78086,77.4511375 16.5085402,77.3774973 15.6212663,78.0601654 C15.5313325,78.7604922 15.5136655,79.3907199 15.5333579,80.2102966 C15.5644641,81.5049024 15.6302006,82.4774674 15.9335126,86.1840003 C15.9777205,86.7242302 16.0076605,87.0949151 16.0362726,87.4567999 C16.4956505,93.2670025 16.4801237,95.9446954 15.8970497,97.7386466 C15.3394224,99.454306 13.5728985,99.8149366 12.2331698,98.6375664 C11.6248686,98.1029838 10.9796502,97.1933669 10.2419305,95.865506 C8.88487173,93.4228636 7.30157259,89.6934527 5.83871845,85.4908512 C2.15582133,74.9103372 0.113070115,64.2823302 0.420994199,56.609968 C0.707609697,49.4685392 2.29393376,41.9997931 5.03769511,34.4154743 C6.01546962,31.7127052 7.09512921,29.1268812 8.23697024,26.7240982 C8.60565221,25.9482785 8.96271658,25.2303794 9.29879972,24.5865236 C9.35318259,24.4823389 9.40571552,24.3826043 9.45613645,24.2877784 L8.19386104,11.8311857 L9.29278605,12.4631833 L11.0444088,13.4706027 C11.424238,13.6831362 11.6382638,13.8003516 11.8880403,13.9332839 C12.5770512,14.299979 13.272062,14.6470652 13.9485001,14.9603324 C14.5064588,15.2187302 15.0344783,15.445831 15.5269891,15.6387333 C16.3920126,15.9775382 17.1329052,16.2015281 17.6754046,16.300542 C17.5107196,15.096205 17.5244294,13.7490782 17.8230689,12.2870271 C18.1738466,10.5697226 18.905614,8.73432285 19.9828354,6.7995219 C20.4687174,5.92682757 21.0037612,5.07288792 21.5696063,4.25904553 C21.75261,3.99583536 21.9301362,3.74953603 22.0977797,3.52555744 C22.1868389,3.40657062 22.2631451,3.30705798 22.314456,3.24243888 L24.8621865,0.0339170551 L25.037773,1.59843325 L25.3162467,4.08232886 C25.378952,4.52129825 25.4196115,4.76459349 25.4748016,5.04060075 C25.6269205,5.80135075 25.8257472,6.51926317 26.0654157,7.15767041 C26.6487255,8.71143849 27.3470759,9.49028545 28.0040283,9.5214867 C28.8292852,9.56068139 30.5431577,8.99932629 32.767827,7.93034555 C33.4175739,7.61813423 34.1063764,7.26581134 34.8296671,6.87621392 C35.9148436,6.29168819 37.039,5.64480047 38.1629814,4.96125913 C38.5242259,4.74157082 38.8667424,4.52938822 39.1814361,4.33068459 C39.3396473,4.230787 39.470744,4.14703996 39.5463568,4.09788558 L39.9621812,3.90797332 C40.1492182,3.85268669 40.2840272,3.82137558 40.4480477,3.78464156 C40.7604179,3.71468317 41.1108989,3.64048893 41.4919654,3.5639694 C42.668026,3.32781213 43.9558585,3.10475749 45.3244605,2.9029629 C55.5552537,1.39447568 65.5432082,1.59392617 74.5530383,3.725625 C80.0752733,5.03216928 85.0232207,7.04540301 89.3533582,9.7812059 C95.3945844,13.5980834 100.859761,18.7766511 105.723682,25.1955503 C109.334607,29.9608743 112.473202,35.2146475 115.087409,40.7650372 C115.928693,42.5512208 116.672322,44.2794841 117.304389,45.904061 C117.508906,46.429724 117.69144,46.9184843 117.848499,47.3593 C117.899701,47.5030061 117.94571,47.6346963 117.985669,47.7517096 C117.996823,47.7843715 118.072396,48.0141117 118.199878,48.4024653 C118.279967,48.6464895 118.279967,48.6464895 118.346355,48.8488717 C118.399456,49.010778 118.648918,49.7716155 118.648918,49.7716155 L114.741516,50.4035565 C114.822281,50.9624984 114.899254,51.5183964 114.970975,52.0623601 C115.041353,52.5961334 115.104911,53.1055002 115.161213,53.5879392 C115.361786,55.3065728 115.462795,56.6073236 115.458753,57.4992132 C115.455236,58.2751056 115.38277,58.7629771 115.167945,59.198435 C114.524991,60.5017239 113.144766,60.5835133 112.204866,59.6890127 C111.922435,59.6377796 111.232785,59.5254726 110.045164,59.3364992 C108.744921,59.1296054 108.252698,59.049785 107.894214,58.9849467 C106.080224,58.6568545 104.520693,58.249117 103.059287,57.7095635 C101.853894,57.2645305 100.747919,56.7384066 99.7341066,56.123263 C98.0149623,55.0801502 96.2549905,53.7637868 94.2267872,52.0204085 C93.7815121,51.6376643 93.0340426,50.9681645 91.5889261,49.6634093 C89.4496333,47.7318687 89.0549797,47.3773135 88.7657377,47.1347227 C88.3250799,46.7651374 87.961339,46.4867164 87.6783726,46.2989575 C86.8688434,47.0854628 85.9140171,47.6358276 84.833607,47.9433241 C83.5351102,48.3128905 82.1522902,48.3232883 80.6929965,48.0236784 C80.4997064,47.9839936 80.317894,47.941312 80.1288595,47.8917267 C79.5260209,47.8213258 79.152964,47.7801979 78.6537099,47.7259779 Z" id="Path" fill="#584D4D"></path>
                    <path d="M10.7894553,24.5512014 C10.6199727,24.8657308 10.5384377,25.0195738 10.4518452,25.1854644 C10.1234159,25.8146574 9.77354229,26.518099 9.41165985,27.2796104 C8.28767731,29.6448137 7.2240815,32.1921643 6.26050329,34.855692 C3.55982763,42.3209131 2.00094946,49.6604381 1.71995356,56.6618467 C1.41941962,64.1500731 3.43287901,74.6256809 7.06678965,85.0654627 C8.50716927,89.2034976 10.0629266,92.8680346 11.3789814,95.2368717 C12.0504532,96.4454895 12.6215163,97.2505637 13.092514,97.6644824 C13.762216,98.2530247 14.4059551,98.1216073 14.6604257,97.3386742 C15.1701601,95.7703677 15.1851501,93.1852554 14.7402973,87.5587658 C14.7117916,87.1982265 14.6819416,86.8286562 14.6378225,86.2895124 C14.332466,82.5579953 14.2656374,81.5692713 14.2337312,80.2413714 C14.2126636,79.3645605 14.231936,78.6770661 14.2942577,78.1652262 C14.3171447,77.9939156 14.3391028,77.8450172 14.3433295,77.8139277 C14.3498911,77.7656645 14.354483,77.4537634 14.354483,77.4537634 C15.9348254,75.9685565 17.983265,75.9982885 19.7890918,77.2960507 C20.4453088,77.7676427 20.5770936,78.3046693 20.5081887,79.6853013 C20.4179457,81.4496485 20.6222951,82.0468593 21.5485765,82.6765123 C22.2228948,83.1348897 23.1528408,83.3500916 24.3667913,83.3318392 C25.1267297,83.3204131 25.9582375,83.2170462 26.8418568,83.029992 C27.3201733,82.9287367 27.7495707,82.8178175 28.0410754,82.7260087 C28.3124732,82.4019455 28.3261574,82.0004006 28.3560015,81.124666 C28.4095898,79.5522834 28.4693124,77.8002002 28.5336415,75.9133413 C28.7174389,70.5223154 28.9013289,65.1312892 29.073089,60.0996627 C29.2956215,53.5807323 29.4793818,48.2043744 29.6144484,44.2625781 C29.691166,42.0236451 29.7511538,40.2773343 29.7928938,39.0682843 C29.8149229,38.4301852 29.8318202,37.9431577 29.8433973,37.6127426 C29.8515654,37.380238 29.8515654,37.380238 29.8569916,37.2285523 C29.8121583,37.2040344 29.8121583,37.2040344 30.1553233,36.5777209 C31.3858891,35.7732649 32.5127212,36.3183332 33.6847818,38.2450264 C34.6819156,39.8841661 40.8567235,41.4950465 53.3014378,43.3388578 C54.5592376,43.5252137 55.8710285,43.7118397 57.2362066,43.8987507 C61.6916969,44.5087663 66.5547137,45.1018537 71.9482267,45.6980684 C72.7468395,45.7863495 73.7487686,45.8947224 75.2784119,46.0588356 C75.5734834,46.09049 76.8411302,46.226366 77.1848483,46.2632568 C77.8627334,46.3360132 78.3681664,46.3904748 78.7944065,46.4367654 C79.2957205,46.4912092 79.6706508,46.5325435 79.9292194,46.5619762 C80.301781,46.6063296 80.301781,46.6063296 80.3442867,46.6124048 C80.6178865,46.6793164 80.7808071,46.7176954 80.9550612,46.7534718 C82.2205128,47.0132837 83.3940492,47.0044596 84.4769407,46.6962569 C85.4873605,46.4086803 86.3547274,45.8631093 87.0735007,45.053684 L87.3935799,44.6932364 L87.832009,44.8947069 C88.2641783,45.0933009 88.8385587,45.5015201 89.6023324,46.1421067 C89.9113465,46.4012807 90.2831014,46.7352636 92.4484295,48.6903114 C93.895741,49.9970485 94.6418977,50.6653725 95.0753827,51.0379822 C97.0532268,52.7380734 98.7577622,54.0129733 100.409673,55.0152915 C101.350199,55.5859677 102.381094,56.0763752 103.51051,56.4933573 C104.89592,57.0048529 106.382945,57.3936339 108.126135,57.7089207 C108.470979,57.7712918 108.963851,57.8512174 110.248231,58.0555871 C112.074592,58.3461966 112.552388,58.4250876 112.722689,58.476132 L113.024144,58.6693651 C113.398372,59.0946493 113.771734,59.0916381 114.00154,58.6258134 C114.108466,58.4090722 114.156068,58.0885922 114.158766,57.4933502 C114.162519,56.6653673 114.06495,55.4089157 113.869935,53.7379033 C113.814404,53.2620805 113.751639,52.7590675 113.682076,52.2314727 C113.584283,51.4897652 113.476561,50.725176 113.362722,49.9609951 L113.268431,49.3280346 L116.940814,48.7341031 C116.833542,48.4073787 116.762951,48.1928449 116.755112,48.1698894 C116.717058,48.058456 116.672919,47.9321172 116.62357,47.7936084 C116.470794,47.3648179 116.292594,46.8876598 116.092467,46.3732811 C115.471337,44.7768141 114.739503,43.0759648 113.910809,41.316511 C111.333956,35.8454313 108.241533,30.6689465 104.686628,25.9775507 C99.9129922,19.6778006 94.5609634,14.6064473 88.6577778,10.8767846 C84.4538742,8.22073696 79.6396205,6.26190083 74.2530329,4.98745032 C65.4147017,2.89632761 55.5908034,2.70015318 45.5145435,4.18585512 C44.1678649,4.38441718 42.9021743,4.60363682 41.7485025,4.83529833 C41.376616,4.9099745 41.0355172,4.98218258 40.7328188,5.04997489 C40.60877,5.07775684 40.2095657,5.21450264 40.2095657,5.21450264 C40.1275987,5.26735263 40.0113981,5.3414122 39.8767132,5.42645485 C39.5557909,5.62909135 39.2070795,5.84511157 38.8396686,6.06854991 C37.6969701,6.76347387 36.5532614,7.42161291 35.4473274,8.01731953 C34.7070429,8.41607065 34.0005257,8.77745459 33.3319825,9.09869775 C30.9193744,10.2579854 29.05216,10.8695655 27.9422053,10.8168494 C26.6298565,10.7545208 25.5937539,9.59899014 24.8479881,7.61248627 C24.5824305,6.90511787 24.3651196,6.12046366 24.1999174,5.29428374 C24.1396512,4.99289132 24.0951323,4.72650212 24.026783,4.24594673 L23.9214311,3.30723701 L23.3334933,4.04766513 C23.2906903,4.10156969 23.2216355,4.19162548 23.13945,4.30142874 C22.9810031,4.51312044 22.8123122,4.7471617 22.6378194,4.99813081 C22.0960755,5.77730892 21.583851,6.59482854 21.1193134,7.4291862 C20.1023578,9.25574347 19.418703,10.9704685 19.0968937,12.545952 C18.8162457,13.9199222 18.8215671,15.1480515 19.1175907,16.2302451 C19.1280313,16.2684134 19.2017246,16.5310761 19.216963,16.5904693 C19.261901,16.7656198 19.2783346,16.8718007 19.2549076,17.0222296 C19.2055121,17.3394056 18.9792591,17.5461476 18.7021986,17.6133152 C17.6872324,17.7077626 16.5166232,17.4195513 15.0518805,16.8458536 C14.5337937,16.6429339 13.9818827,16.4055574 13.4010949,16.1365871 C12.7021183,15.812882 11.9857023,15.4551061 11.2761214,15.0774636 C11.017662,14.9399102 10.7957755,14.8183897 10.401775,14.5978751 L9.74242003,14.2186766 L10.7894553,24.5512014 Z" id="Path" fill="#D7D5D5"></path>
                    <path d="M14.2776269,97.6389543 C13.798715,97.6652243 13.0244922,96.7088535 12.0951804,95.0335551 C9.73288552,87.8574194 6.3542474,70.8239191 6.79997767,59.7179217 C7.41640499,44.3587667 17.9002887,32.8120424 17.9002887,32.8120424 L17.020227,24.1272742 C17.020227,24.1272742 26.5413791,29.602939 25.3357421,25.1954103 C24.1301051,20.7878816 29.0475385,14.5950397 29.0475385,14.5950397 C29.0475385,14.5950397 29.7257308,20.6378891 32.8838719,20.7878816 C36.042013,20.9378741 44.1171116,15.688412 44.1171116,15.688412 C44.1171116,15.688412 69.25365,9.52584405 87.0788271,20.7878816 C104.904004,32.0499191 112.132118,54.1125546 112.132118,54.1125546 L108.902458,54.6348849 C108.902458,54.6348849 109.104271,55.8971115 109.310979,57.451852 C106.855747,57.0508709 103.743494,56.3502184 100.995602,54.6829 C94.2552016,50.5930758 88.5540238,42.9304203 87.2668381,44.6141621 C84.9600282,47.6316537 80.8537775,46.2159065 80.7071994,46.1995127 C76.5737179,45.7372095 36.7658824,41.9299628 34.401452,38.043191 C32.0370215,34.1564193 29.8527382,36.6444776 29.8527382,36.6444776 L28.3069173,82.3550107 C28.3069173,82.3550107 24.1004084,83.6798425 22.1514505,82.3550107 C20.2024925,81.0301788 22.3634681,78.3912105 20.4003149,76.9803853 C18.4371617,75.5695602 16.1838248,75.5602267 14.6726974,76.9803853 C13.1907755,78.3730965 15.9135235,92.5038777 14.7463024,96.9662855 C14.5536547,97.2035362 14.3959313,97.4284633 14.2776269,97.6389543 Z" id="Combined-Shape-Copy-43" fill="#EFEFEF"></path>
                </g>
            </g>
        </g>
    </g>
</svg>